HIERARCHY
ROOT root
{
	OFFSET 0.000000 0.000000 0.000000
	CHANNELS 6 Xposition Yposition Zposition Zrotation Yrotation Xrotation
	JOINT lhip
	{
		OFFSET 0.058581 -0.082280 -0.017664
		CHANNELS 3 Zrotation Yrotation Xrotation
		JOINT lknee
		{
			OFFSET 0.043451 -0.386469 0.008037
			CHANNELS 3 Zrotation Yrotation Xrotation
			JOINT lankle
			{
				OFFSET -0.014790 -0.426874 -0.037428
				CHANNELS 3 Zrotation Yrotation Xrotation
				JOINT ltoe
				{
					OFFSET 0.041054 -0.060286 0.122042
					CHANNELS 3 Zrotation Yrotation Xrotation
					End Site
					{
						OFFSET 0.000000 0.000000 0.000000
					}
				}
			}
		}
	}
	JOINT rhip
	{
		OFFSET -0.060310 -0.090513 -0.013543
		CHANNELS 3 Zrotation Yrotation Xrotation
		JOINT rknee
		{
			OFFSET -0.043257 -0.383688 -0.004843
			CHANNELS 3 Zrotation Yrotation Xrotation
			JOINT rankle
			{
				OFFSET 0.019056 -0.420046 -0.034562
				CHANNELS 3 Zrotation Yrotation Xrotation
				JOINT rtoe
				{
					OFFSET -0.034840 -0.062106 0.130323
					CHANNELS 3 Zrotation Yrotation Xrotation
					End Site
					{
						OFFSET 0.000000 0.000000 0.000000
					}
				}
			}
		}
	}
	JOINT lowerback
	{
		OFFSET 0.004439 0.124404 -0.038385
		CHANNELS 3 Zrotation Yrotation Xrotation
		JOINT upperback
		{
			OFFSET 0.004488 0.137956 0.026820
			CHANNELS 3 Zrotation Yrotation Xrotation
			JOINT chest
			{
				OFFSET -0.002265 0.056032 0.002855
				CHANNELS 3 Zrotation Yrotation Xrotation
				JOINT lowerneck
				{
					OFFSET -0.013390 0.211636 -0.033468
					CHANNELS 3 Zrotation Yrotation Xrotation
					JOINT upperneck
					{
						OFFSET 0.010113 0.088937 0.050410
						CHANNELS 3 Zrotation Yrotation Xrotation
						End Site
						{
							OFFSET 0.000000 0.000000 0.000000
						}
					}
				}
				JOINT lclavicle
				{
					OFFSET 0.071702 0.114000 -0.018898
					CHANNELS 3 Zrotation Yrotation Xrotation
					JOINT lshoulder
					{
						OFFSET 0.122921 0.045205 -0.019046
						CHANNELS 3 Zrotation Yrotation Xrotation
						JOINT lelbow
						{
							OFFSET 0.255332 -0.015649 -0.022946
							CHANNELS 3 Zrotation Yrotation Xrotation
							JOINT lwrist
							{
								OFFSET 0.265709 0.012698 -0.007375
								CHANNELS 3 Zrotation Yrotation Xrotation
								End Site
								{
									OFFSET 0.000000 0.000000 0.000000
								}
							}
						}
					}
				}
				JOINT rclavicle
				{
					OFFSET -0.082954 0.112472 -0.023707
					CHANNELS 3 Zrotation Yrotation Xrotation
					JOINT rshoulder
					{
						OFFSET -0.113228 0.046853 -0.008472
						CHANNELS 3 Zrotation Yrotation Xrotation
						JOINT relbow
						{
							OFFSET -0.260127 -0.014369 -0.031269
							CHANNELS 3 Zrotation Yrotation Xrotation
							JOINT rwrist
							{
								OFFSET -0.269108 0.006794 -0.006027
								CHANNELS 3 Zrotation Yrotation Xrotation
								End Site
								{
									OFFSET 0.000000 0.000000 0.000000
								}
							}
						}
					}
				}
			}
		}
	}
}
MOTION
Frames: 7
Frame Time: 0.033333
2.226392 0.655268 0.997157 -89.068672 -1.203596 84.302378 -0.556065 0.681619 6.502734 0.984558 -11.641566 -1.078336 -0.835910 9.853175 -10.079085 0.000000 -0.000000 0.000000 1.518978 -6.671273 5.629911 -4.019106 -5.449653 3.318459 0.386234 -14.989242 -13.629572 0.000000 -0.000000 0.000000 -1.972751 2.435059 9.007751 -0.807233 -2.933397 2.121213 -0.292415 -0.565446 -1.417034 0.934771 0.465470 -10.746278 5.891885 2.310409 -8.211198 -23.734207 -1.196377 3.036031 -53.642888 3.385448 12.054650 -2.264521 -14.779603 11.935477 -15.242328 -1.002560 1.992825 18.808275 5.693325 2.477930 54.109436 -4.967219 15.185396 -2.472059 21.986655 11.916385 9.387544 2.391650 2.357534 
2.227488 0.654426 0.996737 -89.469738 -1.084605 84.189992 -0.330992 0.961686 6.452747 0.688268 -11.493774 -0.877311 -0.746441 9.918108 -10.045461 0.000000 -0.000000 0.000000 1.483185 -6.709586 5.771973 -3.847429 -5.279823 2.954435 0.444238 -14.917870 -13.504544 0.000000 -0.000000 0.000000 -1.592476 2.438006 9.200945 -1.066779 -2.691951 2.226537 -0.471622 -0.529639 -1.459976 1.132543 0.040791 -11.327278 6.179965 1.846267 -7.994372 -24.763307 -0.492323 2.960752 -53.333267 3.260446 11.459055 -0.920637 -13.577160 10.323723 -13.580689 -2.210195 2.590028 19.476468 4.902462 2.504235 55.450508 -5.613476 14.714107 -3.118270 20.630389 10.630026 9.645663 2.284581 1.598522 
2.229142 0.653057 0.996041 -89.683630 -0.997195 84.161338 -0.293058 0.872734 6.430518 0.636707 -11.543599 -1.008191 -0.348763 10.040261 -9.890505 0.000000 -0.000000 0.000000 1.490813 -6.008627 5.735631 -3.602492 -3.851617 3.300053 0.494973 -14.615544 -11.869008 0.000000 -0.000000 0.000000 -1.389446 2.407907 9.473902 -1.109895 -2.568852 2.356842 -0.628282 -0.506285 -1.624298 1.153786 -0.362901 -11.987143 6.196789 1.702962 -8.319933 -25.681991 -0.154075 2.607404 -53.364777 2.761508 11.064312 0.933760 -11.790174 8.194591 -13.729630 -2.325053 3.200149 20.679923 4.310629 2.433714 56.694230 -5.925084 14.355584 -5.261966 18.693466 8.618226 9.557423 2.251007 2.310925 
2.231728 0.651258 0.995211 -89.885495 -1.057374 84.007110 -0.553978 1.011768 6.642534 0.899892 -11.709468 -1.446811 0.028814 10.063008 -9.815335 0.000000 -0.000000 0.000000 1.246578 -5.966278 5.599521 -3.371689 -3.721223 3.469116 0.457196 -14.678108 -12.104389 0.000000 -0.000000 0.000000 -1.365626 2.443520 10.175355 -1.230386 -2.545052 1.366953 -0.736195 -0.448189 -1.090656 1.462430 -0.824277 -12.688948 6.305303 1.524863 -8.130215 -26.321006 -0.172746 2.100343 -53.209070 1.260913 10.861055 2.443902 -9.832327 6.071263 -13.826325 -1.622518 2.527531 21.951599 3.721558 1.826448 58.537538 -4.930842 13.633399 -7.664755 15.417402 5.096466 9.953749 0.856741 1.042384 
2.233849 0.650470 0.994828 -89.959400 -1.020795 84.077617 -0.604246 1.021590 6.422049 0.964228 -11.695057 -1.501658 -0.035181 9.923782 -9.668973 0.000000 -0.000000 0.000000 1.279227 -5.905989 5.263635 -3.402746 -3.831660 3.666629 0.474968 -14.584690 -12.185855 0.000000 -0.000000 0.000000 -1.453969 2.320687 10.110561 -1.204729 -2.443697 1.522007 -0.678139 -0.455665 -1.235861 1.519173 -0.565724 -13.060798 6.440036 1.209383 -7.753243 -26.328997 -0.947116 1.817825 -53.102747 -0.125668 10.917531 3.358810 -8.760989 5.069736 -13.281882 -1.904162 2.972526 22.442799 4.303507 1.598787 59.274655 -3.883510 13.443935 -8.632839 13.341714 3.345029 9.883382 0.220647 0.698852 
2.237041 0.649175 0.995050 -89.820883 -0.955736 84.242802 -0.648151 0.912298 5.962530 0.983627 -11.807934 -1.446055 0.020338 9.832927 -9.613328 0.000000 -0.000000 0.000000 1.341381 -5.840609 4.796928 -3.310470 -3.757772 3.790887 0.325462 -14.869836 -12.068582 0.000000 -0.000000 0.000000 -1.509812 2.105810 10.188641 -1.085889 -2.717466 1.387324 -0.656464 -0.294716 -1.532258 1.446451 -0.590771 -13.503616 6.540480 0.819688 -6.619765 -26.407460 -2.764779 1.553625 -51.989609 -2.004216 11.221313 3.887176 -6.540617 4.596215 -15.859702 -1.133396 3.397886 23.151936 5.815863 1.502112 58.460074 -2.310428 14.116976 -8.786361 11.772568 3.487524 11.808706 -0.642346 1.461381 
2.239471 0.648315 0.994653 -90.042871 -0.839763 84.265648 -0.490827 1.127734 5.901516 0.888661 -11.546140 -1.727267 0.035950 9.587003 -9.679509 0.000000 -0.000000 0.000000 1.496556 -5.772905 4.720229 -3.212170 -3.405555 3.425414 0.289044 -14.591873 -11.974679 0.000000 -0.000000 0.000000 -1.523276 2.082092 9.981423 -0.900331 -2.908710 1.807560 -0.538258 -0.312184 -1.998782 1.123635 -0.482111 -13.615852 6.599832 0.289133 -5.486604 -26.345629 -5.207326 1.804850 -50.033270 -3.821348 11.092617 4.391058 -6.248844 4.119244 -16.103842 -0.684846 3.886656 23.526500 8.099927 1.553697 56.529813 -0.165662 14.522703 -8.741412 11.139475 3.817947 12.813524 -1.081393 2.457298 
